<mxfile host="app.diagrams.net" modified="2024-06-04T18:55:23.475Z" agent="Mozilla/5.0 (Windows NT 10.0; Win64; x64) AppleWebKit/537.36 (KHTML, like Gecko) Chrome/125.0.0.0 Safari/537.36 Edg/125.0.0.0" version="24.4.13" etag="QUQoJgtG32OPuFohn9Z6" type="github">
  <diagram name="Page-1" id="rFNN8qEmDHb4V85OfL6x">
    <mxGraphModel>
      <root>
        <mxCell id="0" />
        <mxCell id="1" parent="0" />
      </root>
    </mxGraphModel>
  </diagram>
</mxfile>
